<svg width="30" height="30" viewBox="0 0 30 30" fill="none" xmlns="http://www.w3.org/2000/svg">
<rect x="0.5" y="0.5" width="29" height="29" rx="9.5" stroke="#0CAA41"/>
<path d="M18.1254 20.9662H9.01076C9.01076 22.2353 10.0271 23.257 11.2908 23.257H18.1254C19.3837 23.257 20.4 22.2299 20.4 20.9662V11.5451C20.4 11.5021 20.3624 11.4591 20.3193 11.4591H18.206C18.163 11.4591 18.1254 11.4967 18.1254 11.5451V20.9662ZM18.1254 7.2002C19.3837 7.2002 20.4 8.22727 20.4 9.49633H11.2854V18.9175C11.2854 18.9605 11.2477 19.0035 11.1993 19.0035H9.08604C9.04302 19.0035 9 18.9659 9 18.9175V9.49633C9 8.22727 10.0163 7.2002 11.28 7.2002H18.1254V7.2002Z" fill="white"/>
</svg>
