<svg width="30" height="30" viewBox="0 0 30 30" fill="none" xmlns="http://www.w3.org/2000/svg">
<rect x="0.5" y="0.5" width="29" height="29" rx="9.5" stroke="#E97510"/>
<path d="M21.9619 11.4109C21.9267 10.6137 21.7978 10.0657 21.6132 9.59081C21.4226 9.08673 21.1296 8.63543 20.7456 8.26026C20.3704 7.87925 19.9161 7.58319 19.4179 7.39566C18.9403 7.211 18.3951 7.08209 17.5979 7.04694C16.7948 7.00882 16.5398 7 14.5029 7C12.466 7 12.211 7.00882 11.4109 7.04396C10.6137 7.07911 10.0657 7.20813 9.59092 7.39269C9.08673 7.58319 8.63542 7.87627 8.26026 8.26026C7.87925 8.63543 7.5833 9.08971 7.39566 9.58795C7.211 10.0657 7.08209 10.6108 7.04694 11.4079C7.00882 12.211 7 12.466 7 14.5029C7 16.5399 7.00882 16.7948 7.04396 17.595C7.07911 18.3921 7.20813 18.9402 7.3928 19.415C7.5833 19.9191 7.87925 20.3704 8.26026 20.7456C8.63542 21.1266 9.0897 21.4227 9.58794 21.6102C10.0657 21.7949 10.6108 21.9238 11.408 21.9589C12.2081 21.9942 12.4631 22.0029 14.5001 22.0029C16.537 22.0029 16.7919 21.9942 17.5921 21.9589C18.3892 21.9238 18.9373 21.7949 19.4121 21.6102C20.4203 21.2204 21.2175 20.4232 21.6073 19.415C21.7919 18.9373 21.9209 18.3921 21.956 17.595C21.9912 16.7948 22 16.5399 22 14.5029C22 12.466 21.997 12.211 21.9619 11.4109ZM20.6108 17.5363C20.5785 18.269 20.4555 18.6647 20.3529 18.9285C20.1008 19.5821 19.5821 20.1008 18.9285 20.3529C18.6647 20.4555 18.2662 20.5786 17.5363 20.6107C16.745 20.646 16.5077 20.6547 14.5059 20.6547C12.5041 20.6547 12.2638 20.646 11.4754 20.6107C10.7426 20.5786 10.347 20.4555 10.0832 20.3529C9.75795 20.2327 9.4619 20.0422 9.22159 19.7931C8.97247 19.5498 8.78197 19.2567 8.66176 18.9315C8.55918 18.6677 8.43611 18.269 8.40394 17.5393C8.36867 16.748 8.35997 16.5105 8.35997 14.5088C8.35997 12.507 8.36867 12.2667 8.40394 11.4783C8.43611 10.7456 8.55918 10.35 8.66176 10.0862C8.78197 9.76082 8.97247 9.46487 9.22457 9.22446C9.46773 8.97533 9.76082 8.78483 10.0862 8.66474C10.35 8.56216 10.7486 8.43908 11.4783 8.4068C12.2697 8.37165 12.5071 8.36284 14.5088 8.36284C16.5135 8.36284 16.7508 8.37165 17.5393 8.4068C18.272 8.43908 18.6677 8.56216 18.9314 8.66474C19.2567 8.78483 19.5528 8.97533 19.7931 9.22446C20.0422 9.46774 20.2327 9.76082 20.3529 10.0862C20.4555 10.35 20.5785 10.7485 20.6108 11.4783C20.646 12.2697 20.6548 12.507 20.6548 14.5088C20.6548 16.5105 20.646 16.745 20.6108 17.5363Z" fill="white"/>
<path d="M14.5025 10.6484C12.3748 10.6484 10.6484 12.3747 10.6484 14.5025C10.6484 16.6303 12.3748 18.3565 14.5025 18.3565C16.6303 18.3565 18.3565 16.6303 18.3565 14.5025C18.3565 12.3747 16.6303 10.6484 14.5025 10.6484ZM14.5025 17.0025C13.1221 17.0025 12.0025 15.8829 12.0025 14.5025C12.0025 13.122 13.1221 12.0025 14.5025 12.0025C15.8829 12.0025 17.0025 13.122 17.0025 14.5025C17.0025 15.8829 15.8829 17.0025 14.5025 17.0025V17.0025Z" fill="white"/>
<path d="M19.409 10.4974C19.409 10.9943 19.0061 11.3971 18.5091 11.3971C18.0123 11.3971 17.6094 10.9943 17.6094 10.4974C17.6094 10.0004 18.0123 9.59766 18.5091 9.59766C19.0061 9.59766 19.409 10.0004 19.409 10.4974V10.4974Z" fill="white"/>
</svg>
