<svg width="30" height="30" viewBox="0 0 30 30" fill="none" xmlns="http://www.w3.org/2000/svg">
<rect x="0.5" y="0.5" width="29" height="29" rx="9.5" stroke="#FDBE33"/>
<path d="M9.6978 8C8.67121 8 8 8.67411 8 9.56014C8 10.4266 8.65121 11.1199 9.65841 11.1199H9.67789C10.7246 11.1199 11.3759 10.4266 11.3759 9.56014C11.3564 8.67411 10.7246 8 9.6978 8V8Z" fill="white"/>
<path d="M8.17969 12.3525H11.1809V21.3817H8.17969V12.3525Z" fill="white"/>
<path d="M18.5457 12.1406C16.9267 12.1406 15.8411 13.662 15.8411 13.662V12.3525H12.8398V21.3817H15.8409V16.3395C15.8409 16.0695 15.8605 15.8 15.9398 15.607C16.1567 15.068 16.6505 14.5095 17.4796 14.5095C18.5656 14.5095 18.9999 15.3376 18.9999 16.5514V21.3817H22.0008V16.2045C22.0008 13.4312 20.5201 12.1406 18.5457 12.1406V12.1406Z" fill="white"/>
</svg>
