

<svg width="234" height="173" viewBox="0 0 234 173" fill="none" xmlns="http://www.w3.org/2000/svg">
<path d="M1 81.4203C20.29 89.7703 41.8 93.7003 101.52 62.1803C131.513 43.2369 198.6 16.3074 233 53.9074" stroke="#E97510" stroke-width="2" stroke-miterlimit="10"/>
<path d="M209.894 42.8201C211.81 42.8201 213.364 41.2666 213.364 39.3501C213.364 37.4337 211.81 35.8801 209.894 35.8801C207.977 35.8801 206.424 37.4337 206.424 39.3501C206.424 41.2666 207.977 42.8201 209.894 42.8201Z" fill="white"/>
<path d="M219.655 12.1102C219.655 10.676 219.318 9.26178 218.671 7.98214C218.023 6.7025 217.083 5.59344 215.927 4.74482C214.77 3.89621 213.431 3.33193 212.016 3.09769C210.601 2.86345 209.15 2.96585 207.782 3.3966C206.414 3.82734 205.167 4.5743 204.142 5.57696C203.116 6.57962 202.341 7.80977 201.88 9.16773C201.419 10.5257 201.284 11.9732 201.486 13.3931C201.688 14.813 202.222 16.1652 203.045 17.3402L210.525 29.3402L217.995 17.3402C219.075 15.8104 219.655 13.9832 219.655 12.1102V12.1102Z" stroke="#E97510" stroke-width="2" stroke-miterlimit="10"/>
<path d="M210.524 17.1301C213.296 17.1301 215.544 14.8826 215.544 12.1101C215.544 9.33762 213.296 7.09009 210.524 7.09009C207.751 7.09009 205.504 9.33762 205.504 12.1101C205.504 14.8826 207.751 17.1301 210.524 17.1301Z" stroke="#E97510" stroke-width="2" stroke-miterlimit="10"/>
<path d="M108.344 76.8801L117.594 159.52" stroke="#E97510" stroke-width="2" stroke-miterlimit="10"/>
<path d="M122.186 160.16L127.176 73.3101" stroke="#E97510" stroke-width="2" stroke-miterlimit="10"/>
<path d="M109.165 31.1101C102.945 38.1101 104.045 55.2001 104.045 55.2001C102.515 61.1001 91.435 65.2001 92.475 74.2001L94.925 76.5101" stroke="#E97510" stroke-width="2" stroke-miterlimit="10"/>
<path d="M94.3655 76.8801C94.3655 76.8801 88.9655 80.9601 88.9355 86.0401C88.9355 91.3901 112.226 111.55 112.226 111.55" stroke="#E97510" stroke-width="2" stroke-miterlimit="10"/>
<path d="M109.445 86.75L102.885 89.99L111.065 101.2" stroke="#E97510" stroke-width="2" stroke-miterlimit="10"/>
<path d="M107.205 11.5801C107.205 11.5801 107.045 19.4101 110.005 20.5801C111.079 20.5369 112.119 20.1902 113.005 19.5801" stroke="#E97510" stroke-width="2" stroke-miterlimit="10"/>
<path d="M115.605 17.54V24.65" stroke="#E97510" stroke-width="2" stroke-miterlimit="10"/>
<path d="M111.955 20.02V26.37" stroke="#E97510" stroke-width="2" stroke-miterlimit="10"/>
<path d="M128.714 7.76C126.164 16.1 120.094 17.59 116.804 17.54C112.654 17.54 110.734 11.54 110.734 11.54H107.204C102.374 5.04 109.884 2 109.884 2L110.454 4.6C112.777 3.23221 115.532 2.79623 118.164 3.38C119.515 3.70875 120.781 4.31981 121.879 5.17297C122.977 6.02613 123.882 7.10206 124.534 8.33L128.714 7.76Z" fill="white" stroke="white" stroke-width="2" stroke-miterlimit="10"/>
<path d="M122.185 159.76H118.105C116.531 159.761 114.981 160.157 113.599 160.911C112.218 161.666 111.047 162.756 110.195 164.08H122.195L122.185 159.76Z" stroke="#E97510" stroke-width="2" stroke-miterlimit="10"/>
<path d="M60.8748 172.6C79.4647 172.6 94.5348 157.53 94.5348 138.94C94.5348 120.35 79.4647 105.28 60.8748 105.28C42.2849 105.28 27.2148 120.35 27.2148 138.94C27.2148 157.53 42.2849 172.6 60.8748 172.6Z" fill="#107064"/>
<path d="M60.8754 143.79C63.554 143.79 65.7254 141.619 65.7254 138.94C65.7254 136.262 63.554 134.09 60.8754 134.09C58.1968 134.09 56.0254 136.262 56.0254 138.94C56.0254 141.619 58.1968 143.79 60.8754 143.79Z" stroke="#E97510" stroke-width="2" stroke-miterlimit="10"/>
<path d="M169.494 172.6C188.084 172.6 203.154 157.53 203.154 138.94C203.154 120.35 188.084 105.28 169.494 105.28C150.904 105.28 135.834 120.35 135.834 138.94C135.834 157.53 150.904 172.6 169.494 172.6Z" fill="#107064"/>
<path d="M169.495 143.79C172.173 143.79 174.345 141.619 174.345 138.94C174.345 136.262 172.173 134.09 169.495 134.09C166.816 134.09 164.645 136.262 164.645 138.94C164.645 141.619 166.816 143.79 169.495 143.79Z" stroke="#E97510" stroke-width="2" stroke-miterlimit="10"/>
<path d="M63.1855 134.68L73.2155 117.27L86.0455 78.0801" stroke="#E97510" stroke-width="2" stroke-miterlimit="10"/>
<path d="M126.105 91.9602H137.715L167.185 134.68" stroke="#E97510" stroke-width="2" stroke-miterlimit="10"/>
<path d="M81.4941 91.9602H110.034" stroke="#E97510" stroke-width="2" stroke-miterlimit="10"/>
<path d="M115.455 138.94L80.875 93.8701" stroke="#E97510" stroke-width="2" stroke-miterlimit="10"/>
<path d="M164.645 139.83L123.045 145.2" stroke="#E97510" stroke-width="2" stroke-miterlimit="10"/>
<path d="M116.874 153.11C115.606 152.471 114.52 151.523 113.716 150.352C112.912 149.182 112.416 147.828 112.274 146.415C112.133 145.002 112.35 143.577 112.906 142.27C113.461 140.963 114.338 139.818 115.454 138.94" stroke="#E97510" stroke-width="2" stroke-miterlimit="10"/>
<path d="M123.465 137.61C125.191 138.217 126.673 139.369 127.688 140.891C128.703 142.413 129.195 144.224 129.091 146.051C128.988 147.878 128.293 149.621 127.112 151.019C125.932 152.416 124.329 153.393 122.545 153.8" stroke="#E97510" stroke-width="2" stroke-miterlimit="10"/>
<path d="M140.215 83.3101L123.465 137.61" stroke="#E97510" stroke-width="2" stroke-miterlimit="10"/>
<path d="M101.244 82.7601L77.7441 74.3401" stroke="#E97510" stroke-width="2" stroke-miterlimit="10"/>
<path d="M132.614 80.8602L152.384 75.2302C152.384 75.2302 154.514 82.7802 147.384 84.4202L132.834 82.8702C132.583 82.8501 132.348 82.7359 132.178 82.5505C132.007 82.3651 131.913 82.1221 131.914 81.8702V81.8702C131.901 81.648 131.963 81.428 132.09 81.245C132.217 81.0621 132.401 80.9267 132.614 80.8602Z" stroke="#E97510" stroke-width="2" stroke-miterlimit="10"/>
<path d="M114.814 59.7401C118.344 60.8401 122.814 72.0901 129.004 74.2801C133.214 75.7701 135.694 74.2801 135.694 74.2801L137.954 76.2801C137.954 76.2801 149.324 65.6301 152.674 53.2801L150.674 52.4901C150.674 52.4901 151.404 47.6201 147.874 44.9401C144.344 42.2601 144.874 45.0601 135.694 40.0701C128.494 36.1101 122.744 19.8101 112.974 25.5801C104.074 30.8301 111.174 49.1401 107.034 58.5101C105.294 62.4501 96.1238 65.5801 96.8538 74.9501L101.244 78.1001C108.484 78.1001 108.924 68.4401 110.384 64.9101C111.844 61.3801 116.824 60.1601 116.824 54.3201C116.824 41.3801 121.334 37.8801 119.504 33.0101" fill="#D4CDB1"/>
<path d="M114.814 59.7401C118.344 60.8401 122.814 72.0901 129.004 74.2801C133.214 75.7701 135.694 74.2801 135.694 74.2801L137.954 76.2801C137.954 76.2801 149.324 65.6301 152.674 53.2801L150.674 52.4901C150.674 52.4901 151.404 47.6201 147.874 44.9401C144.344 42.2601 144.874 45.0601 135.694 40.0701C128.494 36.1101 122.744 19.8101 112.974 25.5801C104.074 30.8301 111.174 49.1401 107.034 58.5101C105.294 62.4501 96.1238 65.5801 96.8538 74.9501L101.244 78.1001C108.484 78.1001 108.924 68.4401 110.384 64.9101C111.844 61.3801 116.824 60.1601 116.824 54.3201C116.824 41.3801 121.334 37.8801 119.504 33.0101" stroke="#E97510" stroke-width="2" stroke-miterlimit="10"/>
<path d="M135.695 74.28C138.495 72.58 148.055 62.11 150.695 52.49" stroke="#E97510" stroke-width="2" stroke-miterlimit="10"/>
<path d="M96.8542 74.9502C95.9372 75.4969 95.1461 76.2312 94.5326 77.1049C93.9191 77.9786 93.4971 78.9721 93.2942 80.0202C93.2669 80.1764 93.2829 80.3371 93.3404 80.4849C93.3979 80.6326 93.4947 80.7619 93.6203 80.8587C93.7459 80.9554 93.8955 81.016 94.0531 81.0339C94.2106 81.0518 94.3701 81.0263 94.5142 80.9602C95.6265 80.3802 96.9023 80.1934 98.1342 80.4302" stroke="#E97510" stroke-width="2" stroke-miterlimit="10"/>
<path d="M101.245 78.1001L98.1348 81.6501" stroke="#E97510" stroke-width="2" stroke-miterlimit="10"/>
<path d="M92.5147 74.3401C91.6027 74.8904 90.8164 75.626 90.2066 76.4993C89.5968 77.3727 89.1771 78.3643 88.9747 79.4101C88.9463 79.5676 88.9619 79.7298 89.0198 79.879C89.0776 80.0282 89.1755 80.1586 89.3027 80.2557C89.4298 80.3529 89.5813 80.4131 89.7404 80.4298C89.8996 80.4464 90.0603 80.4188 90.2048 80.3501C91.3168 79.7693 92.5929 79.5825 93.8247 79.8201" stroke="#E97510" stroke-width="2" stroke-miterlimit="10"/>
<path d="M19.0755 91.0701C20.9919 91.0701 22.5455 89.5166 22.5455 87.6001C22.5455 85.6837 20.9919 84.1301 19.0755 84.1301C17.159 84.1301 15.6055 85.6837 15.6055 87.6001C15.6055 89.5166 17.159 91.0701 19.0755 91.0701Z" fill="white"/>
<path d="M28.8244 60.36C28.8275 58.9245 28.492 57.5085 27.8451 56.2269C27.1983 54.9454 26.2584 53.8344 25.1017 52.9842C23.945 52.134 22.6041 51.5685 21.1879 51.3337C19.7717 51.0988 18.3201 51.2013 16.9509 51.6327C15.5817 52.064 14.3335 52.8122 13.3077 53.8164C12.2819 54.8206 11.5073 56.0526 11.0468 57.4123C10.5864 58.772 10.4531 60.2211 10.6577 61.642C10.8623 63.0629 11.3991 64.4155 12.2244 65.5901L19.6944 77.5901L27.1744 65.5901C28.2515 64.059 28.8279 62.232 28.8244 60.36V60.36Z" stroke="#E97510" stroke-width="2" stroke-miterlimit="10"/>
<path d="M19.6938 65.3801C22.4663 65.3801 24.7138 63.1326 24.7138 60.3601C24.7138 57.5876 22.4663 55.3401 19.6938 55.3401C16.9214 55.3401 14.6738 57.5876 14.6738 60.3601C14.6738 63.1326 16.9214 65.3801 19.6938 65.3801Z" stroke="#E97510" stroke-width="2" stroke-miterlimit="10"/>
</svg>
