<svg width="382" height="309" viewBox="0 0 382 309" fill="none" xmlns="http://www.w3.org/2000/svg">
<path d="M381 77.104L294.663 0.713379H82.9422L1 77.104V306.616H381V77.104Z" stroke="#CADC57" stroke-miterlimit="10"/>
<path d="M1 77.104H381" stroke="#CADC57" stroke-miterlimit="10"/>
<path d="M229.773 306.616V77.104L294.665 0.713379" stroke="#CADC57" stroke-miterlimit="10"/>
<path d="M82.9453 0.713379L141.785 77.104" stroke="#CADC57" stroke-miterlimit="10"/>
<path d="M51.4118 308.707C70.0394 308.707 85.1401 293.653 85.1401 275.084C85.1401 256.514 70.0394 241.46 51.4118 241.46C32.7842 241.46 17.6836 256.514 17.6836 275.084C17.6836 293.653 32.7842 308.707 51.4118 308.707Z" fill="#F26F28"/>
<path d="M116.684 59.1868C98.3276 65.1418 50.3235 79.3941 42.2572 123.249C34.191 167.104 63.9281 223.042 62.4229 251.531C62.0557 258.474 62.0872 267.247 54.2675 275.105" stroke="#CADC57" stroke-miterlimit="10"/>
<path d="M61.8015 241.461C53.001 221.358 15.8481 224.829 11.0859 209.479" stroke="#CADC57" stroke-miterlimit="10"/>
<path d="M12.1797 196.963C16.5799 204.91 53.8693 213.009 58.4531 225.065" stroke="#CADC57" stroke-miterlimit="10"/>
<path d="M11.0859 176.771C16.2152 187.75 50.1008 198.039 54.6846 211.016" stroke="#CADC57" stroke-miterlimit="10"/>
<path d="M7.79297 157.034C13.4729 161.217 21.3556 174.617 28.3205 180.447C35.2854 186.276 47.7256 190.971 51.3969 199.326" stroke="#CADC57" stroke-miterlimit="10"/>
<path d="M7.79297 134.923C14.7578 144.423 17.506 156.485 25.5723 162.884C33.6385 169.284 43.5929 177.027 47.4424 184.32" stroke="#CADC57" stroke-miterlimit="10"/>
<path d="M11.0859 118.842C17.6837 143.885 40.7286 149.746 43.4191 165.844" stroke="#CADC57" stroke-miterlimit="10"/>
<path d="M16.2148 103.674C20.4106 126.516 39.7423 128.801 40.8384 142.599" stroke="#CADC57" stroke-miterlimit="10"/>
<path d="M24.2812 87.4194C25.9333 108.066 43.2878 113.184 41.5886 126.522" stroke="#CADC57" stroke-miterlimit="10"/>
<path d="M39.3172 70.783C35.1215 83.9426 45.0863 100.166 44.8975 113.326" stroke="#CADC57" stroke-miterlimit="10"/>
<path d="M55.4472 61.8267C50.1291 77.9089 55.4105 90.3575 51.4141 100.161" stroke="#CADC57" stroke-miterlimit="10"/>
<path d="M66.8141 51.3965C60.2163 60.9172 65.7652 80.0528 61.1289 88.3815" stroke="#CADC57" stroke-miterlimit="10"/>
<path d="M80.3752 45.0181C75.0624 55.6158 80.3752 71.0236 74.3281 77.8204" stroke="#CADC57" stroke-miterlimit="10"/>
<path d="M96.3243 40.0825C89.1759 53.0591 89.3595 65.9208 82.9453 72.6809" stroke="#CADC57" stroke-miterlimit="10"/>
<path d="M86.2631 178.182C84.0604 190.84 60.6011 203.085 58.0312 222.822" stroke="#CADC57" stroke-miterlimit="10"/>
<path d="M92.838 200.163C83.3085 223.915 64.0607 216.83 61.4961 239.417" stroke="#CADC57" stroke-miterlimit="10"/>
<path d="M78.538 165.844C71.1955 184.096 50.9932 190.176 53.0438 205.197" stroke="#CADC57" stroke-miterlimit="10"/>
<path d="M74.6934 153.745C67.545 167.265 48.8164 176.049 48.6328 189.02" stroke="#CADC57" stroke-miterlimit="10"/>
<path d="M73.0442 137.48C65.5287 153.196 47.4399 157.034 44.6445 172.159" stroke="#CADC57" stroke-miterlimit="10"/>
<path d="M66.8067 130.171C59.6583 142.599 41.6797 154.138 41.6797 154.138" stroke="#CADC57" stroke-miterlimit="10"/>
<path d="M73.0363 118.11C60.0558 133.826 46.2887 125.241 40.7031 141.485" stroke="#CADC57" stroke-miterlimit="10"/>
<path d="M78.541 106.963C66.5308 120.306 50.4927 113.326 41.582 126.517" stroke="#CADC57" stroke-miterlimit="10"/>
<path d="M78.7531 99.4705C65.0803 110.073 50.6995 106.131 45.3867 111.977" stroke="#CADC57" stroke-miterlimit="10"/>
<path d="M92.8394 96.1819C78.7576 101.3 69.3749 88.7943 54.5273 96.3021" stroke="#CADC57" stroke-miterlimit="10"/>
<path d="M65.082 84.7582C77.3492 82.4787 89.6269 94.9063 100.903 92.8934" stroke="#CADC57" stroke-miterlimit="10"/>
<path d="M78.7539 75.0442C88.0998 77.0571 103.834 85.5845 113.552 84.1258" stroke="#CADC57" stroke-miterlimit="10"/>
<path d="M302.141 265.768H262.219V305.565H302.141V265.768Z" fill="white"/>
<path d="M282.937 261.93C282.937 261.93 277.802 246.58 258.188 254.61C258.188 254.61 265.53 259.18 277.986 258.448" stroke="#CADC57" stroke-miterlimit="10"/>
<path d="M280.172 263.759C280.172 263.759 260.378 250.234 249.559 272.893C249.559 272.893 265.146 268.982 270.537 263.759" stroke="#CADC57" stroke-miterlimit="10"/>
<path d="M280.18 267.047C280.18 267.047 263.685 266.681 258.184 284.039C258.184 284.039 271.568 277.122 274.5 271.261" stroke="#CADC57" stroke-miterlimit="10"/>
<path d="M284.945 267.963C284.945 267.963 297.044 275.455 284.945 290.256C284.945 290.256 281.342 283.857 287.635 275.544" stroke="#CADC57" stroke-miterlimit="10"/>
<path d="M284.941 265.035C284.941 265.035 305.485 266.316 302.17 286.617C302.17 286.617 295.383 281.865 293.737 270.535" stroke="#CADC57" stroke-miterlimit="10"/>
<path d="M283.918 259.007C283.918 259.007 286.782 242.376 303.848 241.466C303.848 241.466 299.998 249.031 289 253.742" stroke="#CADC57" stroke-miterlimit="10"/>
<path d="M288.426 261.929C288.426 261.929 294.656 251.928 313.359 257.109C313.359 257.109 310.422 261.004 297.961 259.754" stroke="#CADC57" stroke-miterlimit="10"/>
<path d="M294.664 265.035C294.664 265.035 309.15 259.556 316.665 267.048C316.665 267.048 311.332 270.593 302.542 265.072" stroke="#CADC57" stroke-miterlimit="10"/>
<path d="M361.463 147.801C361.326 139.561 360.062 128.597 355.085 120.823C355.085 120.823 366.456 124.927 363.639 140.068C360.823 155.209 346.856 188.143 355.426 291.94" stroke="#CADC57" stroke-miterlimit="10"/>
<path d="M359.969 124.253C359.969 124.253 370.222 132.059 369 148.063C367.652 165.671 356.838 171.647 355.438 202.045" stroke="#CADC57" stroke-miterlimit="10"/>
<path d="M322.586 52.97C322.586 67.0864 324.909 75.5249 326.54 79.4356C330.29 88.4649 337.953 102.581 340.769 126.663C344.682 160.124 348.862 173.419 349.223 229.979C349.456 252.27 350.823 274.534 353.319 296.687" stroke="#CADC57" stroke-miterlimit="10"/>
<path d="M339.954 111.192C342.686 81.3492 330.367 85.4168 322.584 52.97C318.734 68.9633 312.944 103.449 336.015 141.652C346.872 159.632 347.234 179.04 347.234 179.04" stroke="#CADC57" stroke-miterlimit="10"/>
<path d="M320.026 129.669C311.96 111.213 290.441 104.375 281.457 91.4032C272.473 78.4318 272.657 62.1665 275.227 52.97C275.227 52.97 300.338 83.728 313.172 107.663C326.005 131.598 340.764 169.022 349.449 301.806" stroke="#CADC57" stroke-miterlimit="10"/>
<path d="M266.367 98.3989C291.222 111.553 338.444 141.945 346.872 290.664" stroke="#CADC57" stroke-miterlimit="10"/>
<path d="M324.295 170.162C318.568 157.536 313.051 157.855 302.137 148.841C291.223 139.828 291.542 131.065 287.121 125.685C282.7 120.305 283.235 123.014 276.632 117.9C270.029 112.787 269.342 99.0156 262.209 99.0156C259.277 99.0156 256.099 101.332 257.442 106.335" stroke="#CADC57" stroke-miterlimit="10"/>
<path d="M342.141 296.687C336.021 190.756 320.88 186.605 313.668 181.732C307.228 177.382 302.529 177.764 294.116 170.162C281.036 158.346 287.146 144.58 279.956 131.907C279.956 131.907 276.872 141.475 284.964 156.48" stroke="#CADC57" stroke-miterlimit="10"/>
<path d="M283.422 141.956C292.154 159.633 310.201 165.044 320.029 186.606" stroke="#CADC57" stroke-miterlimit="10"/>
<path d="M365.23 208.904H319.035V305.57H365.23V208.904Z" fill="white"/>
<path d="M311.949 32.5227C311.949 32.5227 304.984 36.5694 303.148 43.1518" stroke="#CADC57" stroke-miterlimit="10"/>
<path d="M310.353 26.677C310.353 26.677 303.535 32.747 302.938 37.8655" stroke="#CADC57" stroke-miterlimit="10"/>
<path d="M301.631 20.8262C301.631 20.8262 299.601 31.0632 300.456 36.5424" stroke="#CADC57" stroke-miterlimit="10"/>
<path d="M288.969 23.1426C288.969 23.1426 296.054 29.4793 297.885 38.0066" stroke="#CADC57" stroke-miterlimit="10"/>
<path d="M285.426 30.0859C285.426 30.0859 294.342 35.8371 295.081 44.7252" stroke="#CADC57" stroke-miterlimit="10"/>
<path d="M298.772 58.0779C301.083 58.0779 303.371 57.624 305.506 56.7422C307.641 55.8603 309.581 54.5678 311.215 52.9384C312.849 51.3091 314.145 49.3747 315.029 47.246C315.913 45.1172 316.368 42.8357 316.367 40.5317H281.176C281.175 42.8357 281.63 45.1172 282.514 47.246C283.398 49.3747 284.694 51.3091 286.328 52.9384C287.962 54.5678 289.902 55.8603 292.037 56.7422C294.172 57.624 296.46 58.0779 298.772 58.0779Z" fill="#F26F28"/>
<path d="M133.898 278.158C144.529 271.581 155.16 257.245 155.16 257.245C148.746 257.883 138.665 264.282 138.665 264.282C141.964 256.241 145.263 241.623 145.263 241.623C140.496 245.643 133.725 257.245 133.725 257.245L135.377 237.785C125.659 249.288 125.842 265.778 125.842 265.778C124.547 250.093 116.68 237.775 116.68 237.775C116.496 263.174 123.094 281.447 123.094 281.447C119.795 261.893 104.213 246.182 104.213 246.182C104.213 246.182 106.49 261.161 110.664 267.832L95.7695 257.235C101.088 273.965 115.201 281.081 115.201 281.081" stroke="#CADC57" stroke-miterlimit="10"/>
<path d="M149.667 275.784H96.5078V305.57H149.667V275.784Z" fill="white"/>
<path d="M183.915 308.707C196.26 308.707 206.268 298.731 206.268 286.424C206.268 274.118 196.26 264.141 183.915 264.141C171.57 264.141 161.562 274.118 161.562 286.424C161.562 298.731 171.57 308.707 183.915 308.707Z" fill="#F26F28"/>
<path d="M183.92 288.056C183.92 288.056 186.878 243.662 152.599 217.704C152.599 217.704 151.865 229.206 167.541 237.806" stroke="#CADC57" stroke-miterlimit="10"/>
<path d="M179.766 259.017C179.766 259.017 170.761 247.719 152.594 249.862C152.594 249.862 157.733 261.558 178.628 261.192" stroke="#CADC57" stroke-miterlimit="10"/>
<path d="M175.138 240.912C175.138 240.912 173.859 225.279 189.619 216.83C189.619 216.83 186.687 235.244 177.525 241.461" stroke="#CADC57" stroke-miterlimit="10"/>
<path d="M188.157 271.246C188.157 271.246 186.138 253.339 197.136 234.334" stroke="#CADC57" stroke-miterlimit="10"/>
<path d="M188.646 259.017C188.463 258.468 184.125 236.535 198.973 228.301C198.973 228.301 199.985 243.651 191.106 255.394" stroke="#CADC57" stroke-miterlimit="10"/>
<path d="M191.09 268.904C191.09 268.904 199.009 253.878 218.236 252.293C218.236 252.293 214.387 265.035 199.009 265.945" stroke="#CADC57" stroke-miterlimit="10"/>
<path d="M215.775 130.171H136.738V138.568H215.775V130.171Z" stroke="#CADC57" stroke-miterlimit="10"/>
<path d="M215.775 176.06H136.738V184.457H215.775V176.06Z" stroke="#CADC57" stroke-miterlimit="10"/>
<path d="M142.499 138.573L138.676 249.518" stroke="#CADC57" stroke-miterlimit="10"/>
<path d="M214.199 259.613L215.783 305.481" stroke="#CADC57" stroke-miterlimit="10"/>
<path d="M210.02 138.573L213.964 252.89" stroke="#CADC57" stroke-miterlimit="10"/>
<path d="M176.913 110.999C176.913 102.634 174.427 62.4336 200.986 53.7703C200.986 53.7703 205.182 63.4792 185.126 70.0512" stroke="#CADC57" stroke-miterlimit="10"/>
<path d="M178.066 87.4194C179.913 79.2737 188.556 66.9872 208.338 68.0381C208.338 68.0381 200.996 79.8436 183.405 81.365" stroke="#CADC57" stroke-miterlimit="10"/>
<path d="M177.16 95.654C178.073 91.6648 184.655 83.8694 200.992 87.4351C200.992 87.4351 195.831 95.3822 183.034 91.5707" stroke="#CADC57" stroke-miterlimit="10"/>
<path d="M179.019 82.3847C178.914 78.7668 183.886 61.5761 161.633 53.7703C161.633 53.7703 162.913 72.132 178.07 75.3841" stroke="#CADC57" stroke-miterlimit="10"/>
<path d="M177.759 89.5944C178.069 82.9074 171.865 72.8377 154.945 74.2389C154.945 74.2389 157.903 83.9531 172.997 80.4292" stroke="#CADC57" stroke-miterlimit="10"/>
<path d="M177.153 95.6542C175.863 91.0899 172.433 84.999 156.562 85.7623C156.562 85.7623 162.966 91.2834 170.891 89.5946" stroke="#CADC57" stroke-miterlimit="10"/>
<path d="M176.029 129.392C183.423 129.392 190.515 126.464 195.743 121.252C200.972 116.039 203.909 108.97 203.909 101.599H148.148C148.148 108.97 151.086 116.039 156.314 121.252C161.543 126.464 168.635 129.392 176.029 129.392Z" fill="#F26F28"/>
</svg>
