<svg width="179" height="207" viewBox="0 0 179 207" fill="none" xmlns="http://www.w3.org/2000/svg">
<path d="M82.2315 116.022C86.4333 118.483 91.4565 120.417 94.9349 120.383C101.165 120.298 114.294 115.671 115.217 108.095C116.14 100.52 112.175 72.9092 112.175 72.9092C112.175 72.9092 91.9737 78.72 76.1503 72.9092C75.028 77.6619 73.3885 95.1417 73.9497 104.498" stroke="#202328" stroke-miterlimit="10"/>
<path d="M73.8742 98.9262C72.7024 98.8998 71.5892 98.4089 70.7793 97.5617C69.9695 96.7144 69.5294 95.5801 69.5558 94.4084C69.5823 93.2366 70.0731 92.1234 70.9204 91.3135C71.7676 90.5037 72.9019 90.0635 74.0736 90.09" stroke="#202328" stroke-miterlimit="10"/>
<path d="M114.731 98.9262C115.902 98.8998 117.016 98.4089 117.826 97.5617C118.635 96.7144 119.076 95.5801 119.049 94.4084C119.023 93.2366 118.532 92.1234 117.685 91.3135C116.837 90.5037 115.703 90.0635 114.531 90.09" stroke="#202328" stroke-miterlimit="10"/>
<path d="M71.3061 90.99C70.1399 86.1257 72.2763 82.3397 71.8132 78.3002C71.3501 74.2607 69.5551 70.8634 72.0802 67.6555C75.1225 63.8019 101.587 64.1568 108.25 58.7686C108.25 58.7686 109.852 60.959 109.345 64.576C109.345 64.576 116.258 67.5236 116.799 71.3941C117.255 74.6562 115.916 77.5396 116.288 81.5791C116.559 84.493 116.792 88.066 116.552 90.5269" stroke="#202328" stroke-miterlimit="10"/>
<path d="M99.1736 84.5V93.8331C99.1731 94.7245 98.8985 95.5941 98.3869 96.324C97.8753 97.0539 97.1515 97.6087 96.3138 97.9132L95.4688 98.2208" stroke="#202328" stroke-miterlimit="10"/>
<path d="M88.961 91.3702C89.3213 91.3702 89.6134 91.0782 89.6134 90.7178C89.6134 90.3575 89.3213 90.0654 88.961 90.0654C88.6007 90.0654 88.3086 90.3575 88.3086 90.7178C88.3086 91.0782 88.6007 91.3702 88.961 91.3702Z" fill="#202328"/>
<path d="M106.816 91.3702C107.177 91.3702 107.469 91.0782 107.469 90.7178C107.469 90.3575 107.177 90.0654 106.816 90.0654C106.456 90.0654 106.164 90.3575 106.164 90.7178C106.164 91.0782 106.456 91.3702 106.816 91.3702Z" fill="#202328"/>
<path d="M105.89 84.3189C106.982 83.8727 109.003 83.8558 109.757 84.3967C110.369 84.8395 110.244 85.3533 109.507 85.6136C108.385 86.0159 106.542 86.0023 105.788 85.644C105.292 85.4142 105.068 84.657 105.89 84.3189Z" fill="#F26F27" stroke="#F26F27" stroke-miterlimit="10"/>
<path d="M84.9473 84.3189C86.0391 83.8727 88.0606 83.8558 88.8144 84.3967C89.4262 84.8395 89.3045 85.3533 88.5642 85.6136C87.442 86.0159 85.5997 86.0023 84.8458 85.644C84.3523 85.4142 84.1258 84.657 84.9473 84.3189Z" fill="#F26F27" stroke="#F26F27" stroke-miterlimit="10"/>
<path d="M73.8555 96.2471L86.7346 104.958C86.7346 104.958 90.2468 102.119 95.9257 102.088C100.854 102.061 104.353 105.087 104.353 105.087L114.984 97.366" stroke="#202328" stroke-miterlimit="10"/>
<path d="M98.0039 112.372C98.0039 112.372 100.992 113.221 103.034 110.128" stroke="#202328" stroke-miterlimit="10"/>
<path d="M112.719 112.876L114.497 127.117" stroke="#202328" stroke-miterlimit="10"/>
<path d="M178.391 200.452H0" stroke="#202328" stroke-miterlimit="10"/>
<path d="M0 189.857H19.2342" stroke="#202328" stroke-miterlimit="10"/>
<path d="M178.391 206H0" stroke="#202328" stroke-miterlimit="10"/>
<path d="M153.664 189.857H178.388" stroke="#202328" stroke-miterlimit="10"/>
<path d="M79.5938 189.857H97.5062" stroke="#202328" stroke-miterlimit="10"/>
<path d="M38.1719 189.857H74.4092" stroke="#202328" stroke-miterlimit="10"/>
<path d="M5.17969 45.1289H173.206" stroke="#202328" stroke-miterlimit="10"/>
<path d="M74.0796 90.0908C74.5427 82.6541 75.5094 75.7379 76.1788 72.9085C92.0021 78.7193 112.203 72.9085 112.203 72.9085C112.203 72.9085 113.606 81.1633 114.536 90.0908C115.231 90.1239 115.916 90.2712 116.564 90.5269C116.804 88.066 116.564 84.493 116.3 81.5791C115.928 77.5396 117.267 74.6562 116.81 71.3941C116.27 67.5236 109.357 64.576 109.357 64.576C109.864 60.959 108.262 58.7686 108.262 58.7686C101.612 64.1568 75.1342 63.8019 72.0919 67.6555C69.5668 70.8702 71.3618 74.2607 71.8249 78.3002C72.288 82.3397 70.1347 86.1257 71.3178 90.99C71.9702 90.6148 73.2514 90.0739 74.0796 90.0908Z" fill="#202328"/>
<path d="M5.17969 189.559V34.2017C5.17969 30.9213 6.48281 27.7753 8.80239 25.4557C11.122 23.1361 14.268 21.833 17.5484 21.833H160.838C164.118 21.833 167.264 23.1361 169.584 25.4557C171.903 27.7753 173.206 30.9213 173.206 34.2017V189.559" stroke="#202328" stroke-miterlimit="10"/>
<path d="M146.392 165.569C138.225 164.216 128.56 164.764 123.865 166.464C111.534 170.933 105.55 177.549 98.073 176.673C90.5957 175.798 84.6734 170.521 78.9335 171.957C73.1937 173.394 63.6037 181.669 65.8719 185.888C68.1401 190.107 76.8242 179.59 76.8242 179.59C76.8242 179.59 68.6471 186.429 70.3644 188.464C72.0816 190.499 80.6169 182.649 80.6169 182.649C80.6169 182.649 72.6596 188.67 75.2084 191.317C77.7572 193.963 84.0919 183.542 87.9117 184.556C94.0268 186.158 106.612 201.799 141.69 194.362C172.359 187.886 164.176 161.742 157.604 153.075C143.718 134.736 114.251 127.117 114.251 127.117C100.913 137.329 85.8328 134.216 77.6963 129.984" stroke="#202328" stroke-miterlimit="10"/>
<path d="M78.6329 124.238C75.9286 130.998 80.3907 155.279 54.3688 179.956C49.1191 184.932 27.0083 199.224 17.7259 188.407C8.44348 177.59 18.6386 159.512 35.0873 148.624C51.3569 137.854 60.3791 138.222 63.7425 131.485C67.106 124.748 63.3065 118.302 66.4468 112.423C68.6237 108.333 71.541 103.922 74.2216 104.483C78.9101 105.463 71.2773 116.764 71.2773 116.764C71.2773 116.764 75.5264 106.991 77.9636 108.07C80.4008 109.148 75.283 119.546 75.283 119.546C75.283 119.546 78.8087 110.213 82.0674 111.896C84.4944 113.164 80.2082 120.296 78.6329 124.238Z" stroke="#202328" stroke-miterlimit="10"/>
<path d="M124.5 150.268L126.657 165.567" stroke="#202328" stroke-miterlimit="10"/>
<path d="M46.1341 23.8571C51.7871 23.8571 56.3698 19.2744 56.3698 13.6214C56.3698 7.96842 51.7871 3.38574 46.1341 3.38574C40.4811 3.38574 35.8984 7.96842 35.8984 13.6214C35.8984 19.2744 40.4811 23.8571 46.1341 23.8571Z" fill="#202328"/>
<path d="M47.8085 5.26172C48.231 8.4291 49.3297 20.2975 38.3909 22.3663C27.4521 24.435 39.6179 20.0845 39.6179 20.0845C39.6179 20.0845 36.1328 22.5758 34.446 20.8451C32.7592 19.1144 38.2219 17.3397 38.2219 17.3397C38.2219 17.3397 34.2939 19.6349 34.1654 17.4242C34.0201 14.8551 34.4663 11.7655 37.0556 8.14515C38.4247 6.23188 47.8085 5.26172 47.8085 5.26172Z" fill="#F26F27"/>
<path d="M45.2778 5.06218C46.1804 5.73825 49.8515 8.54056 53.1507 6.1777C53.1507 6.1777 54.9896 0.586606 49.7129 0.0389907C44.4361 -0.508625 44.0508 4.89316 44.0508 4.89316L45.2778 5.06218Z" fill="#F26F27"/>
<path d="M50.1933 4.9326C50.436 4.9326 50.6328 4.73586 50.6328 4.49316C50.6328 4.25046 50.436 4.05371 50.1933 4.05371C49.9506 4.05371 49.7539 4.25046 49.7539 4.49316C49.7539 4.73586 49.9506 4.9326 50.1933 4.9326Z" fill="#202328"/>
<path d="M57.7116 3.27164C57.4648 2.97417 54.2636 3.2277 52.5938 3.3832C52.7679 3.94291 52.8456 4.52816 52.8236 5.11393C54.6794 4.56969 57.955 3.55897 57.7116 3.27164Z" fill="#F26F27"/>
<path d="M46.1475 3.13184C43.3507 3.17845 40.675 4.28108 38.6574 6.21844C36.6398 8.15579 35.4296 10.7845 35.2695 13.5771L40.4651 16.6634L46.1272 8.51335L48.054 3.86875L46.1475 3.13184Z" fill="#F26F27"/>
<path d="M35.955 16.2363C35.955 16.2363 28.3526 16.7569 27.1661 17.8521C25.9796 18.9474 31.8817 18.0347 31.8817 18.0347C31.8817 18.0347 26.8585 18.4471 25.9728 19.4612C25.0872 20.4753 32.8383 18.1428 32.8383 18.1428C32.8383 18.1428 27.8658 19.5964 28.4439 20.6578C29.0219 21.7192 37.9595 17.7947 37.9595 17.7947L35.955 16.2363Z" fill="#F26F27"/>
</svg>
