<svg width="133" height="152" viewBox="0 0 133 152" fill="none" xmlns="http://www.w3.org/2000/svg">
<path d="M66.6801 70.02C81.1887 70.02 92.9501 58.2585 92.9501 43.75C92.9501 29.2415 81.1887 17.48 66.6801 17.48C52.1716 17.48 40.4102 29.2415 40.4102 43.75C40.4102 58.2585 52.1716 70.02 66.6801 70.02Z" stroke="#E97510" stroke-width="2" stroke-miterlimit="10"/>
<path d="M70.3295 39.5098H63.0395C62.7081 39.5098 62.4395 39.7784 62.4395 40.1098V47.3998C62.4395 47.7311 62.7081 47.9998 63.0395 47.9998H70.3295C70.6608 47.9998 70.9294 47.7311 70.9294 47.3998V40.1098C70.9294 39.7784 70.6608 39.5098 70.3295 39.5098Z" fill="#107064"/>
<path d="M66.6797 98.8597C66.6797 99.0897 66.6797 99.3097 66.6797 99.5397C67.5397 99.5897 68.4097 99.6297 69.2797 99.6297C74.9471 99.6297 80.5589 98.5133 85.7948 96.3442C91.0307 94.175 95.7879 90.9957 99.7949 86.9878C103.802 82.9799 106.98 78.2219 109.148 72.9856C111.316 67.7492 112.431 62.1371 112.43 56.4697C112.43 56.2397 112.43 56.0097 112.43 55.7797C111.57 55.7297 110.7 55.6997 109.83 55.6997C98.3847 55.7024 87.4093 60.2507 79.3174 68.3445C71.2255 76.4383 66.6797 87.4147 66.6797 98.8597Z" stroke="#E97510" stroke-width="2" stroke-miterlimit="10"/>
<path d="M40.4204 112.86C40.4204 112.73 40.4204 112.61 40.4204 112.48C39.9504 112.48 39.4804 112.48 39.0004 112.48C35.9008 112.479 32.8314 113.088 29.9675 114.274C27.1036 115.459 24.5015 117.198 22.3097 119.389C20.118 121.581 18.3797 124.183 17.1942 127.047C16.0086 129.911 15.3991 132.98 15.4004 136.08C15.4004 136.2 15.4004 136.33 15.4004 136.45C15.8704 136.45 16.3404 136.45 16.8204 136.45C23.077 136.447 29.0767 133.961 33.5016 129.538C37.9266 125.115 40.4151 119.117 40.4204 112.86V112.86Z" stroke="#E97510" stroke-width="2" stroke-miterlimit="10"/>
<path d="M66.6797 96.3999V151.36" stroke="#E97510" stroke-width="2" stroke-miterlimit="10"/>
<path d="M7.49 98.2197C11.0743 98.2197 13.98 95.3141 13.98 91.7297C13.98 88.1454 11.0743 85.2397 7.49 85.2397C3.90567 85.2397 1 88.1454 1 91.7297C1 95.3141 3.90567 98.2197 7.49 98.2197Z" stroke="#E97510" stroke-width="2" stroke-miterlimit="10"/>
<path d="M125.429 98.2197C129.014 98.2197 131.919 95.3141 131.919 91.7297C131.919 88.1454 129.014 85.2397 125.429 85.2397C121.845 85.2397 118.939 88.1454 118.939 91.7297C118.939 95.3141 121.845 98.2197 125.429 98.2197Z" stroke="#E97510" stroke-width="2" stroke-miterlimit="10"/>
<path d="M47.6992 1L52.4992 11.32" stroke="#E97510" stroke-width="2" stroke-miterlimit="10"/>
<path d="M31.0703 13.48L39.6503 20.95" stroke="#E97510" stroke-width="2" stroke-miterlimit="10"/>
<path d="M21.6699 29.1196L32.4299 32.8096" stroke="#E97510" stroke-width="2" stroke-miterlimit="10"/>
<path d="M85.4308 1L80.6309 11.32" stroke="#E97510" stroke-width="2" stroke-miterlimit="10"/>
<path d="M102.07 13.48L93.4805 20.95" stroke="#E97510" stroke-width="2" stroke-miterlimit="10"/>
<path d="M111.471 29.1196L100.711 32.8096" stroke="#E97510" stroke-width="2" stroke-miterlimit="10"/>
<path d="M85.4308 139.16L80.6309 128.84" stroke="#E97510" stroke-width="2" stroke-miterlimit="10"/>
<path d="M47.6992 139.16L52.4992 128.84" stroke="#E97510" stroke-width="2" stroke-miterlimit="10"/>
<path d="M66.6799 98.8597C66.6799 99.0897 66.6799 99.3097 66.6799 99.5397C65.8199 99.5897 64.9499 99.6297 64.0799 99.6297C52.6332 99.6297 41.6553 95.0825 33.5612 86.9884C25.4671 78.8944 20.9199 67.9165 20.9199 56.4697C20.9199 56.2397 20.9199 56.0097 20.9199 55.7797C21.7799 55.7297 22.6499 55.6997 23.5199 55.6997C29.1881 55.6984 34.8011 56.8139 40.0381 58.9824C45.2751 61.1509 50.0335 64.33 54.0416 68.3381C58.0496 72.3461 61.2287 77.1045 63.3972 82.3415C65.5658 87.5785 66.6812 93.1915 66.6799 98.8597Z" fill="#107064"/>
<path d="M92.7793 112.86C92.7793 112.73 92.7793 112.61 92.7793 112.48C93.2493 112.48 93.7193 112.48 94.1993 112.48C97.2989 112.479 100.368 113.088 103.232 114.274C106.096 115.459 108.698 117.198 110.89 119.389C113.082 121.581 114.82 124.183 116.006 127.047C117.191 129.911 117.801 132.98 117.799 136.08C117.799 136.2 117.799 136.33 117.799 136.45C117.329 136.45 116.859 136.45 116.379 136.45C110.123 136.447 104.123 133.961 99.698 129.538C95.273 125.115 92.7846 119.117 92.7793 112.86Z" fill="#107064"/>
</svg>
