<svg width="1198" height="853" viewBox="0 0 1198 853" fill="none" xmlns="http://www.w3.org/2000/svg">
<path d="M23.4799 108.178C14.7476 57.2052 53.7078 10.5237 105.42 9.99828L1013.45 0.772041C1056.59 0.333714 1093.05 32.6459 1097.8 75.5257L1170.51 732.447C1175.91 781.225 1138.53 824.224 1089.47 825.654L224 850.875C182.172 852.094 145.825 822.34 138.759 781.094L23.4799 108.178Z" fill="#F46F2C"/>
<path d="M37.1809 131.153C39.7489 86.7183 76.5316 52 121.041 52H1106.67C1155.83 52 1194.48 94.0271 1190.37 143.014L1141.61 724.982C1137.89 769.34 1100.22 803.096 1055.72 801.94L86.6803 776.753C39.2596 775.52 2.26592 735.292 5.00286 687.935L37.1809 131.153Z" fill="#107064"/>
</svg>
