<svg width="161" height="569" viewBox="0 0 161 569" fill="none" xmlns="http://www.w3.org/2000/svg">
<path d="M138.897 42.0189L30.1592 6.31875C20.5855 3.17555 10.6973 10.178 10.4836 20.2522L0.249619 502.732C0.103074 509.641 4.6955 515.756 11.3714 517.541L118.119 546.085C127.49 548.591 136.74 541.677 136.989 531.98L149.213 56.6561C149.383 50.0345 145.19 44.0851 138.897 42.0189Z" fill="#E8B128"/>
<path d="M150.397 60.0189L41.6592 24.3187C32.0855 21.1756 22.1973 28.178 21.9836 38.2522L11.7496 520.732C11.6031 527.641 16.1955 533.756 22.8714 535.541L129.619 564.085C138.99 566.591 148.24 559.677 148.489 549.98L160.713 74.6561C160.883 68.0345 156.69 62.0851 150.397 60.0189Z" fill="#F46F2C"/>
<path d="M74 474.95H96.25L73.45 495V496.85H107V491.55H84.65L107.55 471.45V469.65H74V474.95ZM94.7 463.447C101.65 463.597 107.7 457.547 107.55 450.497C107.7 443.347 101.65 437.297 94.7 437.447C87.75 437.297 81.75 443.347 81.9 450.497C81.8 457.547 87.65 463.597 94.7 463.447ZM94.75 442.847C99.2 442.847 102.7 446.147 102.7 450.497C102.7 454.797 99.3 458.097 94.75 458.097C90.2 458.097 86.7 454.797 86.7 450.447C86.7 446.197 90.2 442.847 94.75 442.847ZM102.8 433.729C105.65 431.529 107.55 428.029 107.55 423.829C107.55 421.229 106.9 419.079 105.6 417.329C104.25 415.579 102.4 414.729 100.05 414.729C96.6 414.729 94.6 416.779 92.65 421.429L91.7 423.779C90.7 426.179 90.05 427.029 88.8 427.029C87.25 427.029 86.45 425.729 86.45 423.679C86.45 421.529 87.35 419.479 88.95 417.929L85.7 415.079C83.15 417.229 81.9 420.029 81.9 423.579C81.9 428.579 84.6 432.229 89 432.229C92.45 432.229 94.35 430.179 96.15 425.829L97.2 423.329C98.2 420.929 98.8 419.879 100.25 419.879C102.05 419.879 103 421.579 103 423.829C103 426.429 101.75 428.579 99.5 430.729L102.8 433.729ZM102.8 410.975C105.65 408.775 107.55 405.275 107.55 401.075C107.55 398.475 106.9 396.325 105.6 394.575C104.25 392.825 102.4 391.975 100.05 391.975C96.6 391.975 94.6 394.025 92.65 398.675L91.7 401.025C90.7 403.425 90.05 404.275 88.8 404.275C87.25 404.275 86.45 402.975 86.45 400.925C86.45 398.775 87.35 396.725 88.95 395.175L85.7 392.325C83.15 394.475 81.9 397.275 81.9 400.825C81.9 405.825 84.6 409.475 89 409.475C92.45 409.475 94.35 407.425 96.15 403.075L97.2 400.575C98.2 398.175 98.8 397.125 100.25 397.125C102.05 397.125 103 398.825 103 401.075C103 403.675 101.75 405.825 99.5 407.975L102.8 410.975ZM94.7 387.471C101.65 387.621 107.7 381.571 107.55 374.521C107.7 367.371 101.65 361.321 94.7 361.471C87.75 361.321 81.75 367.371 81.9 374.521C81.8 381.571 87.65 387.621 94.7 387.471ZM94.75 366.871C99.2 366.871 102.7 370.171 102.7 374.521C102.7 378.821 99.3 382.121 94.75 382.121C90.2 382.121 86.7 378.821 86.7 374.471C86.7 370.221 90.2 366.871 94.75 366.871ZM102.8 357.752C105.65 355.552 107.55 352.052 107.55 347.852C107.55 345.252 106.9 343.102 105.6 341.352C104.25 339.602 102.4 338.752 100.05 338.752C96.6 338.752 94.6 340.802 92.65 345.452L91.7 347.802C90.7 350.202 90.05 351.052 88.8 351.052C87.25 351.052 86.45 349.752 86.45 347.702C86.45 345.552 87.35 343.502 88.95 341.952L85.7 339.102C83.15 341.252 81.9 344.052 81.9 347.602C81.9 352.602 84.6 356.252 89 356.252C92.45 356.252 94.35 354.202 96.15 349.852L97.2 347.352C98.2 344.952 98.8 343.902 100.25 343.902C102.05 343.902 103 345.602 103 347.852C103 350.452 101.75 352.602 99.5 354.752L102.8 357.752ZM107 318.334V313.034H94.25V306.284C94.25 299.634 90 295.084 84.1 295.084C78.15 295.084 74 299.634 74 306.284V318.334H107ZM89.55 313.034H78.7V306.384C78.7 302.634 80.9 300.534 84.15 300.534C87.4 300.534 89.55 302.634 89.55 306.384V313.034ZM82.45 275.533C82.3 276.133 82.2 276.783 82.2 277.533C82.2 280.333 83.45 282.933 85.65 284.683H82.45V289.583H107V284.333H93.9C89.55 284.333 87.1 281.283 87.1 277.133V275.533H82.45ZM94.7 272.871C101.65 273.021 107.7 266.971 107.55 259.921C107.7 252.771 101.65 246.721 94.7 246.871C87.75 246.721 81.75 252.771 81.9 259.921C81.8 266.971 87.65 273.021 94.7 272.871ZM94.75 252.271C99.2 252.271 102.7 255.571 102.7 259.921C102.7 264.221 99.3 267.521 94.75 267.521C90.2 267.521 86.7 264.221 86.7 259.871C86.7 255.621 90.2 252.271 94.75 252.271ZM69.5 222.202H85.45C83.2 224.052 81.9 227.002 81.9 230.402C81.75 237.202 87.6 242.552 94.75 242.402C102 242.402 107.55 237.302 107.55 230.402C107.55 226.752 106.05 223.602 103.5 221.802H107V216.902H69.5V222.202ZM94.75 222.102C100.1 222.102 102.75 225.652 102.75 229.502C102.75 233.852 99.4 237.052 94.7 237.052C90 237.052 86.7 233.702 86.7 229.502C86.7 225.702 89.45 222.102 94.75 222.102ZM96.7 209.559C103.3 209.559 107.55 204.959 107.55 198.809C107.55 192.809 103.3 188.159 96.7 188.159H82.45V193.409H97.1C100.5 193.409 102.7 195.759 102.7 198.809C102.7 202.009 100.5 204.359 97.1 204.359H82.45V209.559H96.7ZM102.55 166.194C102.7 167.644 102.8 168.694 102.8 169.444C102.8 172.644 101.7 174.294 98.55 174.294H87V166.994H82.45V174.294H76V179.594H82.45V183.594H87V179.594H99C104.75 179.594 107.55 176.194 107.55 170.544C107.55 169.294 107.35 167.844 107 166.194H102.55ZM94.7 162.91C101.65 163.06 107.7 157.01 107.55 149.96C107.7 142.81 101.65 136.76 94.7 136.91C87.75 136.76 81.75 142.81 81.9 149.96C81.8 157.01 87.65 163.06 94.7 162.91ZM94.75 142.31C99.2 142.31 102.7 145.61 102.7 149.96C102.7 154.26 99.3 157.56 94.75 157.56C90.2 157.56 86.7 154.26 86.7 149.91C86.7 145.66 90.2 142.31 94.75 142.31ZM102.8 133.191C105.65 130.991 107.55 127.491 107.55 123.291C107.55 120.691 106.9 118.541 105.6 116.791C104.25 115.041 102.4 114.191 100.05 114.191C96.6 114.191 94.6 116.241 92.65 120.891L91.7 123.241C90.7 125.641 90.05 126.491 88.8 126.491C87.25 126.491 86.45 125.191 86.45 123.141C86.45 120.991 87.35 118.941 88.95 117.391L85.7 114.541C83.15 116.691 81.9 119.491 81.9 123.041C81.9 128.041 84.6 131.691 89 131.691C92.45 131.691 94.35 129.641 96.15 125.291L97.2 122.791C98.2 120.391 98.8 119.341 100.25 119.341C102.05 119.341 103 121.041 103 123.291C103 125.891 101.75 128.041 99.5 130.191L102.8 133.191Z" fill="white"/>
</svg>
