<svg width="346" height="452" viewBox="0 0 346 452" fill="none" xmlns="http://www.w3.org/2000/svg">
<path d="M338.752 12.3322C338.999 5.65007 333.555 0.146233 326.871 0.319177L29.4789 8.01351C23.3852 8.17117 18.4552 13.0222 18.1991 19.1126L0.507957 439.923C0.231076 446.509 5.49563 452 12.0875 452H311.368C317.602 452 322.72 447.068 322.949 440.837L338.752 12.3322Z" fill="#E97510"/>
<path d="M0.405332 46.8461C0.18584 40.2968 5.43557 34.8682 11.9886 34.8682H269.503C300.234 34.8682 325.621 58.8572 327.359 89.5386L345.264 405.531C345.641 412.179 340.351 417.777 333.693 417.777H68.8758C37.6272 417.777 12.0063 393 10.9596 361.769L0.405332 46.8461Z" fill="#FDBE33"/>
</svg>
