<svg width="929" height="853" viewBox="0 0 929 853" fill="none" xmlns="http://www.w3.org/2000/svg">
<path d="M17.7599 104.815C11.13 54.9088 49.5876 10.4197 99.9278 9.76007L766.7 1.02348C810.726 0.446614 847.727 33.9633 851.493 77.8321L907.92 735.185C912.023 782.986 875.325 824.508 827.382 826.31L193.514 850.13C150.223 851.757 112.796 820.195 107.091 777.252L17.7599 104.815Z" fill="#F46F2C"/>
<path d="M28.7836 132.239C30.7951 87.3548 67.7699 52 112.699 52H839.365C887.9 52 926.335 93.0138 923.188 141.447L885.415 722.767C882.473 768.037 844.118 802.793 798.778 801.273L84.9053 777.346C38.1691 775.779 1.70983 736.348 3.80344 689.632L28.7836 132.239Z" fill="#107064"/>
</svg>
