<svg width="611" height="744" viewBox="0 0 611 744" fill="none" xmlns="http://www.w3.org/2000/svg">
<path d="M595.555 100.373C600.453 51.4955 562.548 8.86301 513.433 8.00989L132.407 1.39145C87.5657 0.612556 50.0216 35.1967 47.1237 79.951L11.3286 632.752C8.29935 679.535 44.1506 719.743 90.9735 722.076L451.262 740.025C495.964 742.252 534.561 709.038 539.023 664.505L595.555 100.373Z" fill="#F46F2C"/>
<path d="M18.5575 610.833C20.0846 656.096 57.2203 692 102.51 692H522.79C570.794 692 609.036 651.842 606.69 603.896L582.949 118.556C580.689 72.3629 541.515 36.6859 495.313 38.743L83.0182 57.0993C37.0246 59.1471 1.24968 97.8357 2.80209 143.849L18.5575 610.833Z" fill="#107064"/>
</svg>
