<svg width="1308" height="350" viewBox="0 0 1308 350" fill="none" xmlns="http://www.w3.org/2000/svg">
<path d="M1277.74 23.6702C1279.95 11.3612 1270.46 0.0611915 1257.95 0.127488L86.7245 6.33601C77.2683 6.38614 69.1395 13.0523 67.2387 22.3156L4.92878 325.98C2.38371 338.383 11.8589 350 24.5206 350H1202.28C1211.96 350 1220.25 343.069 1221.96 333.543L1277.74 23.6702Z" fill="#E97510"/>
<path d="M3.79962 50.2286C1.80848 38.0559 11.2029 27 23.5373 27H1149.4C1194.36 27 1233.8 57.0086 1245.78 100.345L1300.49 298.169C1304.02 310.908 1294.44 323.5 1281.22 323.5H133.472C84.4738 323.5 42.6928 287.998 34.7831 239.643L3.79962 50.2286Z" fill="#FDBE33"/>
</svg>
