<svg width="1260" height="744" viewBox="0 0 1260 744" fill="none" xmlns="http://www.w3.org/2000/svg">
<path d="M1226.22 109.73C1236.93 57.887 1197.6 9.17902 1144.66 8.73313L182.008 0.624601C139.645 0.267777 103.646 31.5122 98.0393 73.5037L24.3971 625.002C17.7798 674.558 55.6483 718.888 105.629 720.095L1025.04 742.307C1065.63 743.287 1101.12 715.094 1109.33 675.331L1226.22 109.73Z" fill="#F46F2C"/>
<path d="M38.4777 613.83C41.5406 657.853 78.1458 692 122.275 692H1167.1C1216.83 692 1255.67 649.043 1250.68 599.569L1201.52 112.248C1197.12 68.6467 1159.94 35.7526 1116.13 36.6985L88.1006 58.8934C40.1414 59.9288 2.78677 100.849 6.11628 148.704L38.4777 613.83Z" fill="#107064"/>
</svg>
